<?xml version="1.0" standalone="no"?>
<!DOCTYPE svg PUBLIC "-//W3C//DTD SVG 20010904//EN"
 "http://www.w3.org/TR/2001/REC-SVG-20010904/DTD/svg10.dtd">
<svg version="1.0" xmlns="http://www.w3.org/2000/svg"
 width="700.000000pt" height="700.000000pt" viewBox="0 0 700.000000 700.000000"
 preserveAspectRatio="xMidYMid meet">
<metadata>
Created by potrace 1.11, written by Peter Selinger 2001-2013
</metadata>
<g transform="translate(0.000000,700.000000) scale(0.100000,-0.100000)"
fill="#000000" stroke="none">
<path d="M2197 5696 c-714 -255 -1299 -465 -1301 -467 -3 -4 393 -3442 397
-3445 1 -1 499 -277 1105 -614 l1104 -611 1103 611 1104 612 6 41 c27 188 392
3403 387 3408 -7 7 -2565 920 -2592 925 -8 2 -599 -205 -1313 -460z m2112
-1973 c442 -995 806 -1814 808 -1820 4 -10 -60 -13 -298 -13 l-304 0 -162 403
-161 402 -694 3 -694 2 -161 -402 -161 -403 -305 -3 -306 -2 37 83 c20 45 386
864 812 1820 426 955 777 1737 780 1737 3 0 367 -813 809 -1807z"/>
<path d="M3262 3781 c-128 -307 -232 -561 -232 -565 0 -3 212 -6 470 -6 259 0
470 3 470 6 0 14 -464 1124 -470 1124 -3 0 -110 -251 -238 -559z"/>
</g>
</svg>
